<svg xmlns="http://www.w3.org/2000/svg" viewBox="0 0 1000 1000" fill="none">
  <defs>
    <linearGradient id="g" gradientUnits="userSpaceOnUse" x1="6" y1="2" x2="58" y2="62"><stop offset="0" stop-color="#a7f3d0"/><stop offset="0.3" stop-color="#34d399"/><stop offset="0.65" stop-color="#059669"/><stop offset="1" stop-color="#064e3b"/></linearGradient><radialGradient id="bg" cx="0.5" cy="0.45" r="0.75"><stop offset="0" stop-color="#f0fdf4"/><stop offset="0.55" stop-color="#d1fae5"/><stop offset="1" stop-color="#a7f3d0"/></radialGradient><filter id="s" x="-20%" y="-20%" width="140%" height="150%" color-interpolation-filters="sRGB"><feDropShadow dx="0" dy="2.2" stdDeviation="1.8" flood-color="#064e3b" flood-opacity="0.38"/></filter>
  </defs>
  <rect width="1000" height="1000" fill="url(#bg)"/>
  <g stroke="#10b981" fill="none"><circle cx="500" cy="500" r="330" stroke-opacity="0.16" stroke-width="2"/><circle cx="500" cy="500" r="470" stroke-opacity="0.11" stroke-width="2"/><circle cx="500" cy="500" r="610" stroke-opacity="0.08" stroke-width="2"/><circle cx="500" cy="500" r="750" stroke-opacity="0.06" stroke-width="2"/></g>
  <g transform="translate(500 500) scale(7) translate(-32 -32)" filter="url(#s)" >
    <g stroke="url(#g)" stroke-linecap="round" stroke-linejoin="round" fill="none">
      <path d="M36.29 6.36 A26 26 0 0 1 36.29 57.64" stroke-width="5.8"/>
      <path d="M27.71 57.64 A26 26 0 0 1 27.71 6.36" stroke-width="5.8"/>
      <path d="M36.98 23.38 A5.75 5.75 0 1 0 32 32 A5.75 5.75 0 1 1 27.02 40.63" stroke-width="5.2"/>
      <path d="M32 13.5 V50.5" stroke-width="3.8"/>
    </g>
  </g>
</svg>
